<?xml version="1.0" encoding="UTF-8" standalone="no"?>
<!DOCTYPE svg PUBLIC "-//W3C//DTD SVG 1.1//EN"
 "http://www.w3.org/Graphics/SVG/1.1/DTD/svg11.dtd">
<!-- Generated by graphviz version 2.42.4 (0)
 -->
<!-- Title: G Pages: 1 -->
<svg width="388pt" height="609pt"
 viewBox="0.00 0.00 388.25 608.80" xmlns="http://www.w3.org/2000/svg" xmlns:xlink="http://www.w3.org/1999/xlink">
<g id="graph0" class="graph" transform="scale(1 1) rotate(0) translate(14.4 594.4)">
<title>G</title>
<polygon fill="white" stroke="transparent" points="-14.4,14.4 -14.4,-594.4 373.85,-594.4 373.85,14.4 -14.4,14.4"/>
<!-- admin -->
<g id="node1" class="node">
<title>admin</title>
<path fill="#e0f2fe" stroke="#0284c7" d="M71,-410C71,-410 12,-410 12,-410 6,-410 0,-404 0,-398 0,-398 0,-386 0,-386 0,-380 6,-374 12,-374 12,-374 71,-374 71,-374 77,-374 83,-380 83,-386 83,-386 83,-398 83,-398 83,-404 77,-410 71,-410"/>
<text text-anchor="middle" x="41.5" y="-389.2" font-family="Arial" font-size="11.00">Administrador</text>
</g>
<!-- login -->
<g id="node4" class="node">
<title>login</title>
<ellipse fill="#f8fafc" stroke="black" cx="257.23" cy="-358" rx="47.51" ry="18"/>
<text text-anchor="middle" x="257.23" y="-355.2" font-family="Arial" font-size="11.00">Iniciar sesión</text>
</g>
<!-- admin&#45;&gt;login -->
<g id="edge1" class="edge">
<title>admin&#45;&gt;login</title>
<path fill="none" stroke="#64748b" stroke-width="1.4" d="M83.2,-385.52C117.19,-380.12 165.9,-372.37 202.98,-366.47"/>
<polygon fill="#64748b" stroke="#64748b" stroke-width="1.4" points="203.78,-369.89 213.11,-364.86 202.68,-362.97 203.78,-369.89"/>
</g>
<!-- users -->
<g id="node5" class="node">
<title>users</title>
<ellipse fill="#f8fafc" stroke="black" cx="257.23" cy="-290" rx="64.19" ry="18"/>
<text text-anchor="middle" x="257.23" y="-287.2" font-family="Arial" font-size="11.00">Gestionar usuarios</text>
</g>
<!-- admin&#45;&gt;users -->
<g id="edge4" class="edge">
<title>admin&#45;&gt;users</title>
<path fill="none" stroke="#64748b" stroke-width="1.4" d="M68.86,-373.78C91.1,-358.99 124.15,-338.29 155,-324 169.7,-317.19 186.15,-311.07 201.45,-305.96"/>
<polygon fill="#64748b" stroke="#64748b" stroke-width="1.4" points="202.88,-309.17 211.31,-302.75 200.72,-302.52 202.88,-309.17"/>
</g>
<!-- inventory -->
<g id="node6" class="node">
<title>inventory</title>
<ellipse fill="#f8fafc" stroke="black" cx="257.23" cy="-562" rx="67.9" ry="18"/>
<text text-anchor="middle" x="257.23" y="-559.2" font-family="Arial" font-size="11.00">Gestionar inventario</text>
</g>
<!-- admin&#45;&gt;inventory -->
<g id="edge5" class="edge">
<title>admin&#45;&gt;inventory</title>
<path fill="none" stroke="#64748b" stroke-width="1.4" d="M57.12,-410.21C86.15,-446.29 148.81,-523.75 155,-528 166.98,-536.23 181.12,-542.61 194.97,-547.5"/>
<polygon fill="#64748b" stroke="#64748b" stroke-width="1.4" points="193.89,-550.83 204.48,-550.65 196.09,-544.18 193.89,-550.83"/>
</g>
<!-- assignments -->
<g id="node7" class="node">
<title>assignments</title>
<ellipse fill="#f8fafc" stroke="black" cx="257.23" cy="-494" rx="85.98" ry="18"/>
<text text-anchor="middle" x="257.23" y="-491.2" font-family="Arial" font-size="11.00">Asignar / devolver equipos</text>
</g>
<!-- admin&#45;&gt;assignments -->
<g id="edge7" class="edge">
<title>admin&#45;&gt;assignments</title>
<path fill="none" stroke="#64748b" stroke-width="1.4" d="M68.86,-410.22C91.1,-425.01 124.15,-445.71 155,-460 167.99,-466.02 182.36,-471.5 196.1,-476.22"/>
<polygon fill="#64748b" stroke="#64748b" stroke-width="1.4" points="195.36,-479.67 205.95,-479.53 197.58,-473.03 195.36,-479.67"/>
</g>
<!-- reports -->
<g id="node8" class="node">
<title>reports</title>
<ellipse fill="#f8fafc" stroke="black" cx="257.23" cy="-426" rx="76.94" ry="18"/>
<text text-anchor="middle" x="257.23" y="-423.2" font-family="Arial" font-size="11.00">Generar reportes Excel</text>
</g>
<!-- admin&#45;&gt;reports -->
<g id="edge9" class="edge">
<title>admin&#45;&gt;reports</title>
<path fill="none" stroke="#64748b" stroke-width="1.4" d="M83.2,-398.48C111.3,-402.95 149.46,-409.02 182.8,-414.32"/>
<polygon fill="#64748b" stroke="#64748b" stroke-width="1.4" points="182.54,-417.82 192.97,-415.94 183.64,-410.91 182.54,-417.82"/>
</g>
<!-- audit -->
<g id="node9" class="node">
<title>audit</title>
<ellipse fill="#f8fafc" stroke="black" cx="257.23" cy="-222" rx="62.58" ry="18"/>
<text text-anchor="middle" x="257.23" y="-219.2" font-family="Arial" font-size="11.00">Consultar bitácora</text>
</g>
<!-- admin&#45;&gt;audit -->
<g id="edge11" class="edge">
<title>admin&#45;&gt;audit</title>
<path fill="none" stroke="#64748b" stroke-width="1.4" d="M52.88,-373.83C70.33,-344.83 108.27,-288.1 155,-256 167.48,-247.43 182.3,-240.87 196.69,-235.9"/>
<polygon fill="#64748b" stroke="#64748b" stroke-width="1.4" points="198.11,-239.12 206.55,-232.72 195.96,-232.46 198.11,-239.12"/>
</g>
<!-- operator -->
<g id="node2" class="node">
<title>operator</title>
<path fill="#e0f2fe" stroke="#0284c7" d="M60.5,-495C60.5,-495 22.5,-495 22.5,-495 16.5,-495 10.5,-489 10.5,-483 10.5,-483 10.5,-471 10.5,-471 10.5,-465 16.5,-459 22.5,-459 22.5,-459 60.5,-459 60.5,-459 66.5,-459 72.5,-465 72.5,-471 72.5,-471 72.5,-483 72.5,-483 72.5,-489 66.5,-495 60.5,-495"/>
<text text-anchor="middle" x="41.5" y="-474.2" font-family="Arial" font-size="11.00">Operador</text>
</g>
<!-- operator&#45;&gt;login -->
<g id="edge2" class="edge">
<title>operator&#45;&gt;login</title>
<path fill="none" stroke="#64748b" stroke-width="1.4" d="M62.28,-458.87C83.75,-439.99 119.71,-410.62 155,-392 171.31,-383.39 190.23,-376.34 207.27,-370.94"/>
<polygon fill="#64748b" stroke="#64748b" stroke-width="1.4" points="208.51,-374.22 217.05,-367.94 206.46,-367.52 208.51,-374.22"/>
</g>
<!-- operator&#45;&gt;inventory -->
<g id="edge6" class="edge">
<title>operator&#45;&gt;inventory</title>
<path fill="none" stroke="#64748b" stroke-width="1.4" d="M72.7,-491.7C95.15,-502.38 126.66,-516.85 155,-528 170.43,-534.07 187.43,-540.05 203.03,-545.26"/>
<polygon fill="#64748b" stroke="#64748b" stroke-width="1.4" points="201.94,-548.58 212.53,-548.4 204.13,-541.94 201.94,-548.58"/>
</g>
<!-- operator&#45;&gt;assignments -->
<g id="edge8" class="edge">
<title>operator&#45;&gt;assignments</title>
<path fill="none" stroke="#64748b" stroke-width="1.4" d="M72.67,-479.4C97.07,-481.34 132.75,-484.18 166.17,-486.84"/>
<polygon fill="#64748b" stroke="#64748b" stroke-width="1.4" points="166.21,-490.35 176.46,-487.66 166.77,-483.37 166.21,-490.35"/>
</g>
<!-- operator&#45;&gt;reports -->
<g id="edge10" class="edge">
<title>operator&#45;&gt;reports</title>
<path fill="none" stroke="#64748b" stroke-width="1.4" d="M72.67,-469.8C103.75,-462.38 153.12,-450.6 192.84,-441.13"/>
<polygon fill="#64748b" stroke="#64748b" stroke-width="1.4" points="193.8,-444.5 202.71,-438.77 192.17,-437.69 193.8,-444.5"/>
</g>
<!-- collab -->
<g id="node3" class="node">
<title>collab</title>
<path fill="#dcfce7" stroke="#16a34a" d="M68,-138C68,-138 15,-138 15,-138 9,-138 3,-132 3,-126 3,-126 3,-114 3,-114 3,-108 9,-102 15,-102 15,-102 68,-102 68,-102 74,-102 80,-108 80,-114 80,-114 80,-126 80,-126 80,-132 74,-138 68,-138"/>
<text text-anchor="middle" x="41.5" y="-117.2" font-family="Arial" font-size="11.00">Colaborador</text>
</g>
<!-- collab&#45;&gt;login -->
<g id="edge3" class="edge">
<title>collab&#45;&gt;login</title>
<path fill="none" stroke="#64748b" stroke-width="1.4" d="M47.56,-138.17C59.5,-177.77 93.2,-272.43 155,-324 168.8,-335.52 186.67,-343.19 203.55,-348.27"/>
<polygon fill="#64748b" stroke="#64748b" stroke-width="1.4" points="202.76,-351.69 213.33,-350.98 204.63,-344.94 202.76,-351.69"/>
</g>
<!-- portal -->
<g id="node10" class="node">
<title>portal</title>
<ellipse fill="#f8fafc" stroke="black" cx="257.23" cy="-154" rx="55.85" ry="18"/>
<text text-anchor="middle" x="257.23" y="-151.2" font-family="Arial" font-size="11.00">Ver mis equipos</text>
</g>
<!-- collab&#45;&gt;portal -->
<g id="edge12" class="edge">
<title>collab&#45;&gt;portal</title>
<path fill="none" stroke="#64748b" stroke-width="1.4" d="M80.22,-126C112.42,-131.12 159.31,-138.58 196.59,-144.51"/>
<polygon fill="#64748b" stroke="#64748b" stroke-width="1.4" points="196.41,-148.03 206.84,-146.14 197.51,-141.11 196.41,-148.03"/>
</g>
<!-- request -->
<g id="node11" class="node">
<title>request</title>
<ellipse fill="#f8fafc" stroke="black" cx="257.23" cy="-86" rx="64.19" ry="18"/>
<text text-anchor="middle" x="257.23" y="-83.2" font-family="Arial" font-size="11.00">Solicitar necesidad</text>
</g>
<!-- collab&#45;&gt;request -->
<g id="edge13" class="edge">
<title>collab&#45;&gt;request</title>
<path fill="none" stroke="#64748b" stroke-width="1.4" d="M80.22,-114C110.78,-109.14 154.56,-102.17 190.82,-96.41"/>
<polygon fill="#64748b" stroke="#64748b" stroke-width="1.4" points="191.5,-99.84 200.82,-94.81 190.4,-92.93 191.5,-99.84"/>
</g>
<!-- password -->
<g id="node12" class="node">
<title>password</title>
<ellipse fill="#f8fafc" stroke="black" cx="257.23" cy="-18" rx="102.46" ry="18"/>
<text text-anchor="middle" x="257.23" y="-15.2" font-family="Arial" font-size="11.00">Cambiar / recuperar contraseña</text>
</g>
<!-- collab&#45;&gt;password -->
<g id="edge14" class="edge">
<title>collab&#45;&gt;password</title>
<path fill="none" stroke="#64748b" stroke-width="1.4" d="M68.86,-101.78C91.1,-86.99 124.15,-66.29 155,-52 167.2,-46.35 180.61,-41.17 193.56,-36.65"/>
<polygon fill="#64748b" stroke="#64748b" stroke-width="1.4" points="195.01,-39.86 203.36,-33.33 192.76,-33.23 195.01,-39.86"/>
</g>
</g>
</svg>
