<?xml version="1.0" encoding="UTF-8" standalone="no"?>
<!DOCTYPE svg PUBLIC "-//W3C//DTD SVG 1.1//EN"
 "http://www.w3.org/Graphics/SVG/1.1/DTD/svg11.dtd">
<!-- Generated by graphviz version 2.42.4 (0)
 -->
<!-- Title: G Pages: 1 -->
<svg width="943pt" height="329pt"
 viewBox="0.00 0.00 942.80 329.30" xmlns="http://www.w3.org/2000/svg" xmlns:xlink="http://www.w3.org/1999/xlink">
<g id="graph0" class="graph" transform="scale(1 1) rotate(0) translate(14.4 314.9)">
<title>G</title>
<polygon fill="white" stroke="transparent" points="-14.4,14.4 -14.4,-314.9 928.4,-314.9 928.4,14.4 -14.4,14.4"/>
<!-- User -->
<g id="node1" class="node">
<title>User</title>
<path fill="#f8fafc" stroke="#0f172a" d="M12,-96.5C12,-96.5 234,-96.5 234,-96.5 240,-96.5 246,-102.5 246,-108.5 246,-108.5 246,-147.5 246,-147.5 246,-153.5 240,-159.5 234,-159.5 234,-159.5 12,-159.5 12,-159.5 6,-159.5 0,-153.5 0,-147.5 0,-147.5 0,-108.5 0,-108.5 0,-102.5 6,-96.5 12,-96.5"/>
<text text-anchor="middle" x="25" y="-125.5" font-family="Arial" font-size="10.00">Usuario</text>
<polyline fill="none" stroke="#0f172a" points="50,-96.5 50,-159.5 "/>
<text text-anchor="start" x="58" y="-147.5" font-family="Arial" font-size="10.00">+ id</text>
<text text-anchor="start" x="58" y="-136.5" font-family="Arial" font-size="10.00">+ email</text>
<text text-anchor="start" x="58" y="-125.5" font-family="Arial" font-size="10.00">+ rol</text>
<text text-anchor="start" x="58" y="-114.5" font-family="Arial" font-size="10.00">+ activo</text>
<text text-anchor="start" x="58" y="-103.5" font-family="Arial" font-size="10.00">+ estado_cuenta</text>
<polyline fill="none" stroke="#0f172a" points="139,-96.5 139,-159.5 "/>
<text text-anchor="start" x="147" y="-136.5" font-family="Arial" font-size="10.00">+ create()</text>
<text text-anchor="start" x="147" y="-125.5" font-family="Arial" font-size="10.00">+ recordFailure()</text>
<text text-anchor="start" x="147" y="-114.5" font-family="Arial" font-size="10.00">+ changePassword()</text>
</g>
<!-- Collaborator -->
<g id="node2" class="node">
<title>Collaborator</title>
<path fill="#f8fafc" stroke="#0f172a" d="M399.5,-61C399.5,-61 590.5,-61 590.5,-61 596.5,-61 602.5,-67 602.5,-73 602.5,-73 602.5,-101 602.5,-101 602.5,-107 596.5,-113 590.5,-113 590.5,-113 399.5,-113 399.5,-113 393.5,-113 387.5,-107 387.5,-101 387.5,-101 387.5,-73 387.5,-73 387.5,-67 393.5,-61 399.5,-61"/>
<text text-anchor="middle" x="422" y="-84.5" font-family="Arial" font-size="10.00">Colaborador</text>
<polyline fill="none" stroke="#0f172a" points="456.5,-61 456.5,-113 "/>
<text text-anchor="start" x="464.5" y="-101" font-family="Arial" font-size="10.00">+ id</text>
<text text-anchor="start" x="464.5" y="-90" font-family="Arial" font-size="10.00">+ identificacion</text>
<text text-anchor="start" x="464.5" y="-79" font-family="Arial" font-size="10.00">+ departamento</text>
<text text-anchor="start" x="464.5" y="-68" font-family="Arial" font-size="10.00">+ ubicacion</text>
<polyline fill="none" stroke="#0f172a" points="541.5,-61 541.5,-113 "/>
<text text-anchor="start" x="549.5" y="-90" font-family="Arial" font-size="10.00">+ create()</text>
<text text-anchor="start" x="549.5" y="-79" font-family="Arial" font-size="10.00">+ update()</text>
</g>
<!-- User&#45;&gt;Collaborator -->
<g id="edge1" class="edge">
<title>User&#45;&gt;Collaborator</title>
<path fill="none" stroke="#64748b" d="M246.18,-114.46C288.46,-109.78 335.72,-104.54 377.54,-99.91"/>
<polygon fill="#64748b" stroke="#64748b" points="377.93,-103.38 387.48,-98.8 377.16,-96.43 377.93,-103.38"/>
<text text-anchor="middle" x="308.5" y="-113.8" font-family="Arial" font-size="9.00"> 0..1 vínculo</text>
</g>
<!-- Audit -->
<g id="node7" class="node">
<title>Audit</title>
<path fill="#f8fafc" stroke="#0f172a" d="M409.5,-154.5C409.5,-154.5 580.5,-154.5 580.5,-154.5 586.5,-154.5 592.5,-160.5 592.5,-166.5 592.5,-166.5 592.5,-183.5 592.5,-183.5 592.5,-189.5 586.5,-195.5 580.5,-195.5 580.5,-195.5 409.5,-195.5 409.5,-195.5 403.5,-195.5 397.5,-189.5 397.5,-183.5 397.5,-183.5 397.5,-166.5 397.5,-166.5 397.5,-160.5 403.5,-154.5 409.5,-154.5"/>
<text text-anchor="middle" x="425" y="-172.5" font-family="Arial" font-size="10.00">AuditLog</text>
<polyline fill="none" stroke="#0f172a" points="452.5,-154.5 452.5,-195.5 "/>
<text text-anchor="start" x="460.5" y="-183.5" font-family="Arial" font-size="10.00">+ ip</text>
<text text-anchor="start" x="460.5" y="-172.5" font-family="Arial" font-size="10.00">+ accion</text>
<text text-anchor="start" x="460.5" y="-161.5" font-family="Arial" font-size="10.00">+ nivel</text>
<polyline fill="none" stroke="#0f172a" points="506.5,-154.5 506.5,-195.5 "/>
<text text-anchor="start" x="514.5" y="-178" font-family="Arial" font-size="10.00">+ create()</text>
<text text-anchor="start" x="514.5" y="-167" font-family="Arial" font-size="10.00">+ loginAttempt()</text>
</g>
<!-- User&#45;&gt;Audit -->
<g id="edge8" class="edge">
<title>User&#45;&gt;Audit</title>
<path fill="none" stroke="#64748b" d="M246.18,-143.52C291.78,-149.31 343.15,-155.84 387.25,-161.44"/>
<polygon fill="#64748b" stroke="#64748b" points="387.06,-164.94 397.42,-162.73 387.94,-158 387.06,-164.94"/>
<text text-anchor="middle" x="308.5" y="-156.8" font-family="Arial" font-size="9.00"> genera eventos</text>
</g>
<!-- Inventory -->
<g id="node3" class="node">
<title>Inventory</title>
<path fill="#f8fafc" stroke="#0f172a" d="M383,-248C383,-248 607,-248 607,-248 613,-248 619,-254 619,-260 619,-260 619,-288 619,-288 619,-294 613,-300 607,-300 607,-300 383,-300 383,-300 377,-300 371,-294 371,-288 371,-288 371,-260 371,-260 371,-254 377,-248 383,-248"/>
<text text-anchor="middle" x="410.5" y="-271.5" font-family="Arial" font-size="10.00">InventarioItem</text>
<polyline fill="none" stroke="#0f172a" points="450,-248 450,-300 "/>
<text text-anchor="start" x="458" y="-288" font-family="Arial" font-size="10.00">+ codigo_activo</text>
<text text-anchor="start" x="458" y="-277" font-family="Arial" font-size="10.00">+ serie</text>
<text text-anchor="start" x="458" y="-266" font-family="Arial" font-size="10.00">+ estado</text>
<text text-anchor="start" x="458" y="-255" font-family="Arial" font-size="10.00">+ firma_integridad</text>
<polyline fill="none" stroke="#0f172a" points="545,-248 545,-300 "/>
<text text-anchor="start" x="553" y="-282.5" font-family="Arial" font-size="10.00">+ create()</text>
<text text-anchor="start" x="553" y="-271.5" font-family="Arial" font-size="10.00">+ update()</text>
<text text-anchor="start" x="553" y="-260.5" font-family="Arial" font-size="10.00">+ setStatus()</text>
</g>
<!-- Category -->
<g id="node5" class="node">
<title>Category</title>
<path fill="#f8fafc" stroke="#0f172a" d="M748,-86C748,-86 902,-86 902,-86 908,-86 914,-92 914,-98 914,-98 914,-110 914,-110 914,-116 908,-122 902,-122 902,-122 748,-122 748,-122 742,-122 736,-116 736,-110 736,-110 736,-98 736,-98 736,-92 742,-86 748,-86"/>
<text text-anchor="middle" x="765.5" y="-101.5" font-family="Arial" font-size="10.00">Categoria</text>
<polyline fill="none" stroke="#0f172a" points="795,-86 795,-122 "/>
<text text-anchor="start" x="803" y="-107" font-family="Arial" font-size="10.00">+ nombre</text>
<text text-anchor="start" x="803" y="-96" font-family="Arial" font-size="10.00">+ tipo</text>
<polyline fill="none" stroke="#0f172a" points="853,-86 853,-122 "/>
<text text-anchor="start" x="861" y="-107" font-family="Arial" font-size="10.00">+ create()</text>
<text text-anchor="start" x="861" y="-96" font-family="Arial" font-size="10.00">+ update()</text>
</g>
<!-- Inventory&#45;&gt;Category -->
<g id="edge2" class="edge">
<title>Inventory&#45;&gt;Category</title>
<path fill="none" stroke="#64748b" d="M552.98,-247.99C573.88,-238.23 597.64,-226.86 619,-216 676.81,-186.61 742.38,-150.24 783.47,-127.07"/>
<polygon fill="#64748b" stroke="#64748b" points="785.37,-130.02 792.35,-122.05 781.93,-123.92 785.37,-130.02"/>
<text text-anchor="middle" x="677.5" y="-200.8" font-family="Arial" font-size="9.00"> pertenece a </text>
</g>
<!-- Signer -->
<g id="node8" class="node">
<title>Signer</title>
<path fill="#f8fafc" stroke="#0f172a" d="M769,-256C769,-256 881,-256 881,-256 887,-256 893,-262 893,-268 893,-268 893,-280 893,-280 893,-286 887,-292 881,-292 881,-292 769,-292 769,-292 763,-292 757,-286 757,-280 757,-280 757,-268 757,-268 757,-262 763,-256 769,-256"/>
<text text-anchor="middle" x="797" y="-271.5" font-family="Arial" font-size="10.00">IntegritySigner</text>
<polyline fill="none" stroke="#0f172a" points="837,-256 837,-292 "/>
<text text-anchor="start" x="845" y="-277" font-family="Arial" font-size="10.00">+ sign()</text>
<text text-anchor="start" x="845" y="-266" font-family="Arial" font-size="10.00">+ verify()</text>
</g>
<!-- Inventory&#45;&gt;Signer -->
<g id="edge7" class="edge">
<title>Inventory&#45;&gt;Signer</title>
<path fill="none" stroke="#64748b" d="M619.07,-274C661.77,-274 708.43,-274 746.42,-274"/>
<polygon fill="#64748b" stroke="#64748b" points="746.9,-277.5 756.9,-274 746.9,-270.5 746.9,-277.5"/>
<text text-anchor="middle" x="677.5" y="-276.8" font-family="Arial" font-size="9.00"> firma / verifica</text>
</g>
<!-- Assignment -->
<g id="node4" class="node">
<title>Assignment</title>
<path fill="#f8fafc" stroke="#0f172a" d="M22.5,-236.5C22.5,-236.5 223.5,-236.5 223.5,-236.5 229.5,-236.5 235.5,-242.5 235.5,-248.5 235.5,-248.5 235.5,-265.5 235.5,-265.5 235.5,-271.5 229.5,-277.5 223.5,-277.5 223.5,-277.5 22.5,-277.5 22.5,-277.5 16.5,-277.5 10.5,-271.5 10.5,-265.5 10.5,-265.5 10.5,-248.5 10.5,-248.5 10.5,-242.5 16.5,-236.5 22.5,-236.5"/>
<text text-anchor="middle" x="43" y="-254.5" font-family="Arial" font-size="10.00">Asignacion</text>
<polyline fill="none" stroke="#0f172a" points="75.5,-236.5 75.5,-277.5 "/>
<text text-anchor="start" x="83.5" y="-265.5" font-family="Arial" font-size="10.00">+ inventario_id</text>
<text text-anchor="start" x="83.5" y="-254.5" font-family="Arial" font-size="10.00">+ colaborador_id</text>
<text text-anchor="start" x="83.5" y="-243.5" font-family="Arial" font-size="10.00">+ fecha_asignacion</text>
<polyline fill="none" stroke="#0f172a" points="176.5,-236.5 176.5,-277.5 "/>
<text text-anchor="start" x="184.5" y="-260" font-family="Arial" font-size="10.00">+ create()</text>
<text text-anchor="start" x="184.5" y="-249" font-family="Arial" font-size="10.00">+ close()</text>
</g>
<!-- Assignment&#45;&gt;Collaborator -->
<g id="edge4" class="edge">
<title>Assignment&#45;&gt;Collaborator</title>
<path fill="none" stroke="#64748b" d="M211.07,-236.47C253.53,-223.47 303.58,-203.43 342,-174 359.43,-160.65 353.58,-147.36 371,-134 379.11,-127.78 388.14,-122.3 397.52,-117.49"/>
<polygon fill="#64748b" stroke="#64748b" points="399.13,-120.6 406.6,-113.08 396.08,-114.3 399.13,-120.6"/>
<text text-anchor="middle" x="308.5" y="-214.8" font-family="Arial" font-size="9.00"> responsable </text>
</g>
<!-- Assignment&#45;&gt;Inventory -->
<g id="edge3" class="edge">
<title>Assignment&#45;&gt;Inventory</title>
<path fill="none" stroke="#64748b" d="M235.51,-262.12C274.93,-263.93 319.65,-265.99 360.69,-267.87"/>
<polygon fill="#64748b" stroke="#64748b" points="360.61,-271.37 370.76,-268.34 360.93,-264.38 360.61,-271.37"/>
<text text-anchor="middle" x="308.5" y="-268.8" font-family="Arial" font-size="9.00"> asigna </text>
</g>
<!-- Need -->
<g id="node6" class="node">
<title>Need</title>
<path fill="#f8fafc" stroke="#0f172a" d="M13.5,-0.5C13.5,-0.5 232.5,-0.5 232.5,-0.5 238.5,-0.5 244.5,-6.5 244.5,-12.5 244.5,-12.5 244.5,-29.5 244.5,-29.5 244.5,-35.5 238.5,-41.5 232.5,-41.5 232.5,-41.5 13.5,-41.5 13.5,-41.5 7.5,-41.5 1.5,-35.5 1.5,-29.5 1.5,-29.5 1.5,-12.5 1.5,-12.5 1.5,-6.5 7.5,-0.5 13.5,-0.5"/>
<text text-anchor="middle" x="33" y="-18.5" font-family="Arial" font-size="10.00">Necesidad</text>
<polyline fill="none" stroke="#0f172a" points="64.5,-0.5 64.5,-41.5 "/>
<text text-anchor="start" x="72.5" y="-29.5" font-family="Arial" font-size="10.00">+ tipo_necesidad</text>
<text text-anchor="start" x="72.5" y="-18.5" font-family="Arial" font-size="10.00">+ prioridad</text>
<text text-anchor="start" x="72.5" y="-7.5" font-family="Arial" font-size="10.00">+ estado</text>
<polyline fill="none" stroke="#0f172a" points="155.5,-0.5 155.5,-41.5 "/>
<text text-anchor="start" x="163.5" y="-24" font-family="Arial" font-size="10.00">+ create()</text>
<text text-anchor="start" x="163.5" y="-13" font-family="Arial" font-size="10.00">+ updateStatus()</text>
</g>
<!-- Need&#45;&gt;Collaborator -->
<g id="edge5" class="edge">
<title>Need&#45;&gt;Collaborator</title>
<path fill="none" stroke="#64748b" d="M239.04,-41.52C283.02,-49.37 333.19,-58.31 377.32,-66.19"/>
<polygon fill="#64748b" stroke="#64748b" points="376.77,-69.64 387.23,-67.95 378,-62.75 376.77,-69.64"/>
<text text-anchor="middle" x="308.5" y="-60.8" font-family="Arial" font-size="9.00"> solicita </text>
</g>
<!-- Need&#45;&gt;Category -->
<g id="edge6" class="edge">
<title>Need&#45;&gt;Category</title>
<path fill="none" stroke="#64748b" d="M244.62,-12.26C345.54,-7.55 492.84,-6.74 619,-30 674.93,-40.31 735.84,-64.02 776.61,-81.84"/>
<polygon fill="#64748b" stroke="#64748b" points="775.2,-85.04 785.76,-85.89 778.03,-78.64 775.2,-85.04"/>
<text text-anchor="middle" x="495" y="-32.8" font-family="Arial" font-size="9.00"> sugiere </text>
</g>
</g>
</svg>
