<?xml version="1.0" encoding="UTF-8" standalone="no"?>
<!DOCTYPE svg PUBLIC "-//W3C//DTD SVG 1.1//EN"
 "http://www.w3.org/Graphics/SVG/1.1/DTD/svg11.dtd">
<!-- Generated by graphviz version 2.42.4 (0)
 -->
<!-- Title: G Pages: 1 -->
<svg width="692pt" height="546pt"
 viewBox="0.00 0.00 691.80 545.80" xmlns="http://www.w3.org/2000/svg" xmlns:xlink="http://www.w3.org/1999/xlink">
<g id="graph0" class="graph" transform="scale(1 1) rotate(0) translate(14.4 531.4)">
<title>G</title>
<polygon fill="white" stroke="transparent" points="-14.4,14.4 -14.4,-531.4 677.4,-531.4 677.4,14.4 -14.4,14.4"/>
<!-- usuarios -->
<g id="node1" class="node">
<title>usuarios</title>
<path fill="#f8fafc" stroke="#0f172a" d="M259.5,-326.5C259.5,-326.5 379.5,-326.5 379.5,-326.5 385.5,-326.5 391.5,-332.5 391.5,-338.5 391.5,-338.5 391.5,-402.5 391.5,-402.5 391.5,-408.5 385.5,-414.5 379.5,-414.5 379.5,-414.5 259.5,-414.5 259.5,-414.5 253.5,-414.5 247.5,-408.5 247.5,-402.5 247.5,-402.5 247.5,-338.5 247.5,-338.5 247.5,-332.5 253.5,-326.5 259.5,-326.5"/>
<text text-anchor="middle" x="273.5" y="-368.3" font-family="Arial" font-size="9.00">usuarios</text>
<polyline fill="none" stroke="#0f172a" points="299.5,-326.5 299.5,-414.5 "/>
<text text-anchor="start" x="307.5" y="-403.3" font-family="Arial" font-size="9.00">PK id</text>
<text text-anchor="start" x="307.5" y="-393.3" font-family="Arial" font-size="9.00">FK colaborador_id</text>
<text text-anchor="start" x="307.5" y="-383.3" font-family="Arial" font-size="9.00">nombre_usuario</text>
<text text-anchor="start" x="307.5" y="-373.3" font-family="Arial" font-size="9.00">email</text>
<text text-anchor="start" x="307.5" y="-363.3" font-family="Arial" font-size="9.00">password_hash</text>
<text text-anchor="start" x="307.5" y="-353.3" font-family="Arial" font-size="9.00">rol</text>
<text text-anchor="start" x="307.5" y="-343.3" font-family="Arial" font-size="9.00">activo</text>
<text text-anchor="start" x="307.5" y="-333.3" font-family="Arial" font-size="9.00">estado_cuenta</text>
</g>
<!-- bitacora -->
<g id="node7" class="node">
<title>bitacora</title>
<path fill="#f8fafc" stroke="#0f172a" d="M520,-458.5C520,-458.5 620,-458.5 620,-458.5 626,-458.5 632,-464.5 632,-470.5 632,-470.5 632,-504.5 632,-504.5 632,-510.5 626,-516.5 620,-516.5 620,-516.5 520,-516.5 520,-516.5 514,-516.5 508,-510.5 508,-504.5 508,-504.5 508,-470.5 508,-470.5 508,-464.5 514,-458.5 520,-458.5"/>
<text text-anchor="middle" x="533" y="-485.3" font-family="Arial" font-size="9.00">bitacora</text>
<polyline fill="none" stroke="#0f172a" points="558,-458.5 558,-516.5 "/>
<text text-anchor="start" x="566" y="-505.3" font-family="Arial" font-size="9.00">PK id</text>
<text text-anchor="start" x="566" y="-495.3" font-family="Arial" font-size="9.00">FK usuario_id</text>
<text text-anchor="start" x="566" y="-485.3" font-family="Arial" font-size="9.00">modulo</text>
<text text-anchor="start" x="566" y="-475.3" font-family="Arial" font-size="9.00">accion</text>
<text text-anchor="start" x="566" y="-465.3" font-family="Arial" font-size="9.00">ip</text>
</g>
<!-- usuarios&#45;&gt;bitacora -->
<g id="edge7" class="edge">
<title>usuarios&#45;&gt;bitacora</title>
<path fill="none" stroke="#64748b" d="M391.71,-404.03C425.27,-419.83 465.19,-438.62 498.64,-454.37"/>
<polygon fill="#64748b" stroke="#64748b" points="497.35,-457.64 507.89,-458.73 500.34,-451.3 497.35,-457.64"/>
<text text-anchor="middle" x="438.5" y="-431.3" font-family="Arial" font-size="9.00"> 1..N</text>
</g>
<!-- intentos -->
<g id="node8" class="node">
<title>intentos</title>
<path fill="#f8fafc" stroke="#0f172a" d="M508,-359.5C508,-359.5 632,-359.5 632,-359.5 638,-359.5 644,-365.5 644,-371.5 644,-371.5 644,-405.5 644,-405.5 644,-411.5 638,-417.5 632,-417.5 632,-417.5 508,-417.5 508,-417.5 502,-417.5 496,-411.5 496,-405.5 496,-405.5 496,-371.5 496,-371.5 496,-365.5 502,-359.5 508,-359.5"/>
<text text-anchor="middle" x="533" y="-386.3" font-family="Arial" font-size="9.00">intentos_login</text>
<polyline fill="none" stroke="#0f172a" points="570,-359.5 570,-417.5 "/>
<text text-anchor="start" x="578" y="-406.3" font-family="Arial" font-size="9.00">PK id</text>
<text text-anchor="start" x="578" y="-396.3" font-family="Arial" font-size="9.00">FK usuario_id</text>
<text text-anchor="start" x="578" y="-386.3" font-family="Arial" font-size="9.00">identificador</text>
<text text-anchor="start" x="578" y="-376.3" font-family="Arial" font-size="9.00">ip</text>
<text text-anchor="start" x="578" y="-366.3" font-family="Arial" font-size="9.00">exitoso</text>
</g>
<!-- usuarios&#45;&gt;intentos -->
<g id="edge8" class="edge">
<title>usuarios&#45;&gt;intentos</title>
<path fill="none" stroke="#64748b" d="M391.71,-375.66C420.96,-377.78 455.04,-380.25 485.46,-382.45"/>
<polygon fill="#64748b" stroke="#64748b" points="485.39,-385.95 495.62,-383.18 485.9,-378.97 485.39,-385.95"/>
<text text-anchor="middle" x="438.5" y="-382.3" font-family="Arial" font-size="9.00"> 1..N</text>
</g>
<!-- resets -->
<g id="node10" class="node">
<title>resets</title>
<path fill="#f8fafc" stroke="#0f172a" d="M502,-270.5C502,-270.5 638,-270.5 638,-270.5 644,-270.5 650,-276.5 650,-282.5 650,-282.5 650,-306.5 650,-306.5 650,-312.5 644,-318.5 638,-318.5 638,-318.5 502,-318.5 502,-318.5 496,-318.5 490,-312.5 490,-306.5 490,-306.5 490,-282.5 490,-282.5 490,-276.5 496,-270.5 502,-270.5"/>
<text text-anchor="middle" x="533" y="-292.3" font-family="Arial" font-size="9.00">password_resets</text>
<polyline fill="none" stroke="#0f172a" points="576,-270.5 576,-318.5 "/>
<text text-anchor="start" x="584" y="-307.3" font-family="Arial" font-size="9.00">PK id</text>
<text text-anchor="start" x="584" y="-297.3" font-family="Arial" font-size="9.00">FK usuario_id</text>
<text text-anchor="start" x="584" y="-287.3" font-family="Arial" font-size="9.00">token_hash</text>
<text text-anchor="start" x="584" y="-277.3" font-family="Arial" font-size="9.00">expira_at</text>
</g>
<!-- usuarios&#45;&gt;resets -->
<g id="edge10" class="edge">
<title>usuarios&#45;&gt;resets</title>
<path fill="none" stroke="#64748b" d="M391.71,-348.72C419.41,-340.25 451.45,-330.45 480.6,-321.53"/>
<polygon fill="#64748b" stroke="#64748b" points="481.83,-324.82 490.37,-318.55 479.78,-318.13 481.83,-324.82"/>
<text text-anchor="middle" x="438.5" y="-339.3" font-family="Arial" font-size="9.00"> 1..N</text>
</g>
<!-- colaboradores -->
<g id="node2" class="node">
<title>colaboradores</title>
<path fill="#f8fafc" stroke="#0f172a" d="M12,-219.5C12,-219.5 150,-219.5 150,-219.5 156,-219.5 162,-225.5 162,-231.5 162,-231.5 162,-265.5 162,-265.5 162,-271.5 156,-277.5 150,-277.5 150,-277.5 12,-277.5 12,-277.5 6,-277.5 0,-271.5 0,-265.5 0,-265.5 0,-231.5 0,-231.5 0,-225.5 6,-219.5 12,-219.5"/>
<text text-anchor="middle" x="38" y="-246.3" font-family="Arial" font-size="9.00">colaboradores</text>
<polyline fill="none" stroke="#0f172a" points="76,-219.5 76,-277.5 "/>
<text text-anchor="start" x="84" y="-266.3" font-family="Arial" font-size="9.00">PK id</text>
<text text-anchor="start" x="84" y="-256.3" font-family="Arial" font-size="9.00">identificacion UQ</text>
<text text-anchor="start" x="84" y="-246.3" font-family="Arial" font-size="9.00">departamento</text>
<text text-anchor="start" x="84" y="-236.3" font-family="Arial" font-size="9.00">ubicacion</text>
<text text-anchor="start" x="84" y="-226.3" font-family="Arial" font-size="9.00">email UQ</text>
</g>
<!-- colaboradores&#45;&gt;usuarios -->
<g id="edge1" class="edge">
<title>colaboradores&#45;&gt;usuarios</title>
<path fill="none" stroke="#64748b" d="M138.35,-277.57C168.19,-292.96 205.37,-312.14 238.18,-329.07"/>
<polygon fill="#64748b" stroke="#64748b" points="236.82,-332.3 247.31,-333.78 240.03,-326.08 236.82,-332.3"/>
<text text-anchor="middle" x="200.5" y="-315.3" font-family="Arial" font-size="9.00"> 0..1</text>
</g>
<!-- asignaciones -->
<g id="node5" class="node">
<title>asignaciones</title>
<path fill="#f8fafc" stroke="#0f172a" d="M500.5,-145.5C500.5,-145.5 639.5,-145.5 639.5,-145.5 645.5,-145.5 651.5,-151.5 651.5,-157.5 651.5,-157.5 651.5,-191.5 651.5,-191.5 651.5,-197.5 645.5,-203.5 639.5,-203.5 639.5,-203.5 500.5,-203.5 500.5,-203.5 494.5,-203.5 488.5,-197.5 488.5,-191.5 488.5,-191.5 488.5,-157.5 488.5,-157.5 488.5,-151.5 494.5,-145.5 500.5,-145.5"/>
<text text-anchor="middle" x="524" y="-172.3" font-family="Arial" font-size="9.00">asignaciones</text>
<polyline fill="none" stroke="#0f172a" points="559.5,-145.5 559.5,-203.5 "/>
<text text-anchor="start" x="567.5" y="-192.3" font-family="Arial" font-size="9.00">PK id</text>
<text text-anchor="start" x="567.5" y="-182.3" font-family="Arial" font-size="9.00">FK inventario_id</text>
<text text-anchor="start" x="567.5" y="-172.3" font-family="Arial" font-size="9.00">FK colaborador_id</text>
<text text-anchor="start" x="567.5" y="-162.3" font-family="Arial" font-size="9.00">fecha_asignacion</text>
<text text-anchor="start" x="567.5" y="-152.3" font-family="Arial" font-size="9.00">estado</text>
</g>
<!-- colaboradores&#45;&gt;asignaciones -->
<g id="edge4" class="edge">
<title>colaboradores&#45;&gt;asignaciones</title>
<path fill="none" stroke="#64748b" d="M162.15,-236.32C249.07,-223.11 387.53,-202.07 478.36,-188.27"/>
<polygon fill="#64748b" stroke="#64748b" points="479.01,-191.71 488.37,-186.75 477.96,-184.79 479.01,-191.71"/>
<text text-anchor="middle" x="319.5" y="-226.3" font-family="Arial" font-size="9.00"> 1..N</text>
</g>
<!-- necesidades -->
<g id="node6" class="node">
<title>necesidades</title>
<path fill="#f8fafc" stroke="#0f172a" d="M251,-109.5C251,-109.5 388,-109.5 388,-109.5 394,-109.5 400,-115.5 400,-121.5 400,-121.5 400,-155.5 400,-155.5 400,-161.5 394,-167.5 388,-167.5 388,-167.5 251,-167.5 251,-167.5 245,-167.5 239,-161.5 239,-155.5 239,-155.5 239,-121.5 239,-121.5 239,-115.5 245,-109.5 251,-109.5"/>
<text text-anchor="middle" x="273.5" y="-136.3" font-family="Arial" font-size="9.00">necesidades</text>
<polyline fill="none" stroke="#0f172a" points="308,-109.5 308,-167.5 "/>
<text text-anchor="start" x="316" y="-156.3" font-family="Arial" font-size="9.00">PK id</text>
<text text-anchor="start" x="316" y="-146.3" font-family="Arial" font-size="9.00">FK colaborador_id</text>
<text text-anchor="start" x="316" y="-136.3" font-family="Arial" font-size="9.00">FK categoria_id</text>
<text text-anchor="start" x="316" y="-126.3" font-family="Arial" font-size="9.00">tipo_necesidad</text>
<text text-anchor="start" x="316" y="-116.3" font-family="Arial" font-size="9.00">estado</text>
</g>
<!-- colaboradores&#45;&gt;necesidades -->
<g id="edge5" class="edge">
<title>colaboradores&#45;&gt;necesidades</title>
<path fill="none" stroke="#64748b" d="M144.45,-219.45C175.84,-204.86 214.03,-187.09 246.63,-171.93"/>
<polygon fill="#64748b" stroke="#64748b" points="248.52,-174.91 256.11,-167.52 245.57,-168.56 248.52,-174.91"/>
<text text-anchor="middle" x="200.5" y="-199.3" font-family="Arial" font-size="9.00"> 1..N</text>
</g>
<!-- categorias -->
<g id="node3" class="node">
<title>categorias</title>
<path fill="#f8fafc" stroke="#0f172a" d="M39.5,-57.5C39.5,-57.5 122.5,-57.5 122.5,-57.5 128.5,-57.5 134.5,-63.5 134.5,-69.5 134.5,-69.5 134.5,-93.5 134.5,-93.5 134.5,-99.5 128.5,-105.5 122.5,-105.5 122.5,-105.5 39.5,-105.5 39.5,-105.5 33.5,-105.5 27.5,-99.5 27.5,-93.5 27.5,-93.5 27.5,-69.5 27.5,-69.5 27.5,-63.5 33.5,-57.5 39.5,-57.5"/>
<text text-anchor="middle" x="57" y="-79.3" font-family="Arial" font-size="9.00">categorias</text>
<polyline fill="none" stroke="#0f172a" points="86.5,-57.5 86.5,-105.5 "/>
<text text-anchor="start" x="94.5" y="-94.3" font-family="Arial" font-size="9.00">PK id</text>
<text text-anchor="start" x="94.5" y="-84.3" font-family="Arial" font-size="9.00">nombre</text>
<text text-anchor="start" x="94.5" y="-74.3" font-family="Arial" font-size="9.00">tipo</text>
<text text-anchor="start" x="94.5" y="-64.3" font-family="Arial" font-size="9.00">activo</text>
</g>
<!-- inventario -->
<g id="node4" class="node">
<title>inventario</title>
<path fill="#f8fafc" stroke="#0f172a" d="M258.5,-0.5C258.5,-0.5 380.5,-0.5 380.5,-0.5 386.5,-0.5 392.5,-6.5 392.5,-12.5 392.5,-12.5 392.5,-56.5 392.5,-56.5 392.5,-62.5 386.5,-68.5 380.5,-68.5 380.5,-68.5 258.5,-68.5 258.5,-68.5 252.5,-68.5 246.5,-62.5 246.5,-56.5 246.5,-56.5 246.5,-12.5 246.5,-12.5 246.5,-6.5 252.5,-0.5 258.5,-0.5"/>
<text text-anchor="middle" x="275" y="-32.3" font-family="Arial" font-size="9.00">inventario</text>
<polyline fill="none" stroke="#0f172a" points="303.5,-0.5 303.5,-68.5 "/>
<text text-anchor="start" x="311.5" y="-57.3" font-family="Arial" font-size="9.00">PK id</text>
<text text-anchor="start" x="311.5" y="-47.3" font-family="Arial" font-size="9.00">FK categoria_id</text>
<text text-anchor="start" x="311.5" y="-37.3" font-family="Arial" font-size="9.00">codigo_activo UQ</text>
<text text-anchor="start" x="311.5" y="-27.3" font-family="Arial" font-size="9.00">serie UQ</text>
<text text-anchor="start" x="311.5" y="-17.3" font-family="Arial" font-size="9.00">estado</text>
<text text-anchor="start" x="311.5" y="-7.3" font-family="Arial" font-size="9.00">firma_integridad</text>
</g>
<!-- categorias&#45;&gt;inventario -->
<g id="edge2" class="edge">
<title>categorias&#45;&gt;inventario</title>
<path fill="none" stroke="#64748b" d="M134.74,-67.45C152.53,-62.98 172.56,-58.22 191,-54.5 205.68,-51.54 221.39,-48.76 236.59,-46.27"/>
<polygon fill="#64748b" stroke="#64748b" points="237.17,-49.72 246.49,-44.67 236.06,-42.81 237.17,-49.72"/>
<text text-anchor="middle" x="200.5" y="-57.3" font-family="Arial" font-size="9.00"> 1..N</text>
</g>
<!-- categorias&#45;&gt;necesidades -->
<g id="edge6" class="edge">
<title>categorias&#45;&gt;necesidades</title>
<path fill="none" stroke="#64748b" d="M134.78,-94.22C162.54,-100.91 197.33,-109.3 229.14,-116.96"/>
<polygon fill="#64748b" stroke="#64748b" points="228.37,-120.38 238.91,-119.32 230.01,-113.57 228.37,-120.38"/>
<text text-anchor="middle" x="200.5" y="-114.3" font-family="Arial" font-size="9.00"> 1..N</text>
</g>
<!-- inventario&#45;&gt;asignaciones -->
<g id="edge3" class="edge">
<title>inventario&#45;&gt;asignaciones</title>
<path fill="none" stroke="#64748b" d="M380.97,-68.57C419.68,-90.37 469.71,-118.56 508.43,-140.38"/>
<polygon fill="#64748b" stroke="#64748b" points="507.08,-143.63 517.51,-145.49 510.52,-137.54 507.08,-143.63"/>
<text text-anchor="middle" x="438.5" y="-107.3" font-family="Arial" font-size="9.00"> 1..N</text>
</g>
<!-- images -->
<g id="node9" class="node">
<title>images</title>
<path fill="#f8fafc" stroke="#0f172a" d="M489,-10.5C489,-10.5 651,-10.5 651,-10.5 657,-10.5 663,-16.5 663,-22.5 663,-22.5 663,-46.5 663,-46.5 663,-52.5 657,-58.5 651,-58.5 651,-58.5 489,-58.5 489,-58.5 483,-58.5 477,-52.5 477,-46.5 477,-46.5 477,-22.5 477,-22.5 477,-16.5 483,-10.5 489,-10.5"/>
<text text-anchor="middle" x="528.5" y="-32.3" font-family="Arial" font-size="9.00">inventario_imagenes</text>
<polyline fill="none" stroke="#0f172a" points="580,-10.5 580,-58.5 "/>
<text text-anchor="start" x="588" y="-47.3" font-family="Arial" font-size="9.00">PK id</text>
<text text-anchor="start" x="588" y="-37.3" font-family="Arial" font-size="9.00">FK inventario_id</text>
<text text-anchor="start" x="588" y="-27.3" font-family="Arial" font-size="9.00">ruta</text>
<text text-anchor="start" x="588" y="-17.3" font-family="Arial" font-size="9.00">es_principal</text>
</g>
<!-- inventario&#45;&gt;images -->
<g id="edge9" class="edge">
<title>inventario&#45;&gt;images</title>
<path fill="none" stroke="#64748b" d="M392.71,-34.5C415.76,-34.5 441.72,-34.5 466.5,-34.5"/>
<polygon fill="#64748b" stroke="#64748b" points="466.66,-38 476.66,-34.5 466.66,-31 466.66,-38"/>
<text text-anchor="middle" x="438.5" y="-37.3" font-family="Arial" font-size="9.00"> 1..N</text>
</g>
</g>
</svg>
