<?xml version="1.0" encoding="UTF-8" standalone="no"?>
<!DOCTYPE svg PUBLIC "-//W3C//DTD SVG 1.1//EN"
 "http://www.w3.org/Graphics/SVG/1.1/DTD/svg11.dtd">
<!-- Generated by graphviz version 2.42.4 (0)
 -->
<!-- Title: G Pages: 1 -->
<svg width="1397pt" height="156pt"
 viewBox="0.00 0.00 1397.40 155.87" xmlns="http://www.w3.org/2000/svg" xmlns:xlink="http://www.w3.org/1999/xlink">
<g id="graph0" class="graph" transform="scale(1 1) rotate(0) translate(18 137.87)">
<title>G</title>
<polygon fill="white" stroke="transparent" points="-18,18 -18,-137.87 1379.4,-137.87 1379.4,18 -18,18"/>
<!-- Start -->
<g id="node1" class="node">
<title>Start</title>
<ellipse fill="#f8fafc" stroke="#0f172a" cx="1.8" cy="-64" rx="1.8" ry="1.8"/>
</g>
<!-- Active -->
<g id="node2" class="node">
<title>Active</title>
<ellipse fill="#f8fafc" stroke="#0f172a" cx="93.63" cy="-64" rx="53.07" ry="26.74"/>
<text text-anchor="middle" x="93.63" y="-67.8" font-family="Arial" font-size="14.00">ACTIVO</text>
<text text-anchor="middle" x="93.63" y="-52.8" font-family="Arial" font-size="14.00">0 intentos</text>
</g>
<!-- Start&#45;&gt;Active -->
<g id="edge1" class="edge">
<title>Start&#45;&gt;Active</title>
<path fill="none" stroke="#475569" d="M3.81,-64C7,-64 17.44,-64 30.09,-64"/>
<polygon fill="#475569" stroke="#475569" points="30.12,-67.5 40.12,-64 30.12,-60.5 30.12,-67.5"/>
</g>
<!-- Active&#45;&gt;Active -->
<g id="edge7" class="edge">
<title>Active&#45;&gt;Active</title>
<path fill="none" stroke="#475569" d="M80.56,-90.27C79.98,-100.43 84.34,-108.87 93.63,-108.87 99.59,-108.87 103.52,-105.41 105.42,-100.24"/>
<polygon fill="#475569" stroke="#475569" points="108.9,-100.64 106.71,-90.27 101.96,-99.74 108.9,-100.64"/>
<text text-anchor="middle" x="93.63" y="-111.87" font-family="Arial" font-size="10.00"> login válido</text>
</g>
<!-- Fail1 -->
<g id="node3" class="node">
<title>Fail1</title>
<ellipse fill="#f8fafc" stroke="#0f172a" cx="340.86" cy="-95" rx="70.39" ry="18"/>
<text text-anchor="middle" x="340.86" y="-91.3" font-family="Arial" font-size="14.00">Intento fallido 1</text>
</g>
<!-- Active&#45;&gt;Fail1 -->
<g id="edge2" class="edge">
<title>Active&#45;&gt;Fail1</title>
<path fill="none" stroke="#475569" d="M132.33,-82.68C142.57,-86.9 153.84,-90.78 164.67,-93 196.53,-99.52 232.33,-100.95 263.23,-100.39"/>
<polygon fill="#475569" stroke="#475569" points="263.6,-103.89 273.51,-100.13 263.42,-96.89 263.6,-103.89"/>
<text text-anchor="middle" x="208.67" y="-103" font-family="Arial" font-size="10.00"> contraseña inválida</text>
</g>
<!-- Fail1&#45;&gt;Active -->
<g id="edge5" class="edge">
<title>Fail1&#45;&gt;Active</title>
<path fill="none" stroke="#475569" d="M283.2,-84.66C273.05,-82.98 262.56,-81.35 252.67,-80 221.01,-75.68 185.65,-71.99 156.41,-69.25"/>
<polygon fill="#475569" stroke="#475569" points="156.62,-65.76 146.34,-68.32 155.98,-72.73 156.62,-65.76"/>
<text text-anchor="middle" x="208.67" y="-83" font-family="Arial" font-size="10.00"> login válido</text>
</g>
<!-- Fail2 -->
<g id="node4" class="node">
<title>Fail2</title>
<ellipse fill="#f8fafc" stroke="#0f172a" cx="605.25" cy="-57" rx="70.39" ry="18"/>
<text text-anchor="middle" x="605.25" y="-53.3" font-family="Arial" font-size="14.00">Intento fallido 2</text>
</g>
<!-- Fail1&#45;&gt;Fail2 -->
<g id="edge3" class="edge">
<title>Fail1&#45;&gt;Fail2</title>
<path fill="none" stroke="#475569" d="M402.39,-86.23C441.54,-80.56 492.65,-73.16 533.65,-67.22"/>
<polygon fill="#475569" stroke="#475569" points="534.18,-70.68 543.57,-65.79 533.17,-63.76 534.18,-70.68"/>
<text text-anchor="middle" x="473.05" y="-84" font-family="Arial" font-size="10.00"> contraseña inválida</text>
</g>
<!-- Fail2&#45;&gt;Active -->
<g id="edge6" class="edge">
<title>Fail2&#45;&gt;Active</title>
<path fill="none" stroke="#475569" d="M534.92,-56.2C467.44,-55.61 362.01,-55.18 270.67,-57 232.84,-57.75 190.47,-59.41 156.77,-60.93"/>
<polygon fill="#475569" stroke="#475569" points="156.44,-57.44 146.61,-61.39 156.76,-64.43 156.44,-57.44"/>
<text text-anchor="middle" x="340.86" y="-60" font-family="Arial" font-size="10.00"> login válido</text>
</g>
<!-- Locked -->
<g id="node5" class="node">
<title>Locked</title>
<ellipse fill="#f8fafc" stroke="#0f172a" cx="905.98" cy="-57" rx="73.58" ry="26.74"/>
<text text-anchor="middle" x="905.98" y="-60.8" font-family="Arial" font-size="14.00">BLOQUEADO</text>
<text text-anchor="middle" x="905.98" y="-45.8" font-family="Arial" font-size="14.00">3 intentos</text>
</g>
<!-- Fail2&#45;&gt;Locked -->
<g id="edge4" class="edge">
<title>Fail2&#45;&gt;Locked</title>
<path fill="none" stroke="#475569" d="M675.53,-57C719.28,-57 776.04,-57 822.16,-57"/>
<polygon fill="#475569" stroke="#475569" points="822.43,-60.5 832.43,-57 822.43,-53.5 822.43,-60.5"/>
<text text-anchor="middle" x="753.94" y="-60" font-family="Arial" font-size="10.00"> tercera contraseña inválida</text>
</g>
<!-- Reset -->
<g id="node6" class="node">
<title>Reset</title>
<ellipse fill="#f8fafc" stroke="#0f172a" cx="1235.96" cy="-18" rx="125.38" ry="18"/>
<text text-anchor="middle" x="1235.96" y="-14.3" font-family="Arial" font-size="14.00">Desbloqueado / recuperación</text>
</g>
<!-- Locked&#45;&gt;Reset -->
<g id="edge8" class="edge">
<title>Locked&#45;&gt;Reset</title>
<path fill="none" stroke="#475569" d="M976.14,-48.78C1020.36,-43.52 1078.59,-36.59 1128.63,-30.64"/>
<polygon fill="#475569" stroke="#475569" points="1129.33,-34.09 1138.84,-29.43 1128.5,-27.13 1129.33,-34.09"/>
<text text-anchor="middle" x="1045.02" y="-49" font-family="Arial" font-size="10.00"> administrador / token</text>
</g>
<!-- Reset&#45;&gt;Active -->
<g id="edge9" class="edge">
<title>Reset&#45;&gt;Active</title>
<path fill="none" stroke="#475569" d="M1123.82,-9.88C1060.34,-5.92 979.24,-2 906.98,-2 339.86,-2 339.86,-2 339.86,-2 270.49,-2 193.36,-25.61 144.45,-43.69"/>
<polygon fill="#475569" stroke="#475569" points="143.19,-40.42 135.06,-47.22 145.65,-46.98 143.19,-40.42"/>
<text text-anchor="middle" x="605.25" y="-5" font-family="Arial" font-size="10.00"> contador = 0</text>
</g>
</g>
</svg>
