<?xml version="1.0" encoding="UTF-8" standalone="no"?>
<!DOCTYPE svg PUBLIC "-//W3C//DTD SVG 1.1//EN"
 "http://www.w3.org/Graphics/SVG/1.1/DTD/svg11.dtd">
<!-- Generated by graphviz version 2.42.4 (0)
 -->
<!-- Title: G Pages: 1 -->
<svg width="298pt" height="482pt"
 viewBox="0.00 0.00 298.00 482.00" xmlns="http://www.w3.org/2000/svg" xmlns:xlink="http://www.w3.org/1999/xlink">
<g id="graph0" class="graph" transform="scale(1 1) rotate(0) translate(18 464)">
<title>G</title>
<polygon fill="white" stroke="transparent" points="-18,18 -18,-464 280,-464 280,18 -18,18"/>
<!-- User -->
<g id="node1" class="node">
<title>User</title>
<path fill="#f8fafc" stroke="#0f172a" d="M121,-446C121,-446 91,-446 91,-446 85,-446 79,-440 79,-434 79,-434 79,-422 79,-422 79,-416 85,-410 91,-410 91,-410 121,-410 121,-410 127,-410 133,-416 133,-422 133,-422 133,-434 133,-434 133,-440 127,-446 121,-446"/>
<text text-anchor="middle" x="106" y="-425.5" font-family="Arial" font-size="10.00">Usuario</text>
</g>
<!-- View -->
<g id="node2" class="node">
<title>View</title>
<path fill="#f8fafc" stroke="#0f172a" d="M128,-364C128,-364 84,-364 84,-364 78,-364 72,-358 72,-352 72,-352 72,-340 72,-340 72,-334 78,-328 84,-328 84,-328 128,-328 128,-328 134,-328 140,-334 140,-340 140,-340 140,-352 140,-352 140,-358 134,-364 128,-364"/>
<text text-anchor="middle" x="106" y="-343.5" font-family="Arial" font-size="10.00">Vista: Login</text>
</g>
<!-- User&#45;&gt;View -->
<g id="edge1" class="edge">
<title>User&#45;&gt;View</title>
<path fill="none" stroke="#475569" d="M78.81,-417.3C67.47,-411.76 55.46,-403.55 49,-392 42.55,-380.47 50.93,-370.83 63.09,-363.48"/>
<polygon fill="#475569" stroke="#475569" points="64.79,-366.54 71.97,-358.76 61.5,-360.36 64.79,-366.54"/>
<text text-anchor="middle" x="87.5" y="-384.8" font-family="Arial" font-size="9.00">1. Envía formulario</text>
</g>
<!-- View&#45;&gt;User -->
<g id="edge9" class="edge">
<title>View&#45;&gt;User</title>
<path fill="none" stroke="#475569" d="M122.03,-364.33C127.62,-372.45 131.87,-382.42 129,-392 128.09,-395.04 126.83,-398.05 125.35,-400.97"/>
<polygon fill="#475569" stroke="#475569" points="122.18,-399.45 120.1,-409.84 128.21,-403.02 122.18,-399.45"/>
<text text-anchor="middle" x="171.5" y="-384.8" font-family="Arial" font-size="9.00">9. Dashboard o error</text>
</g>
<!-- Controller -->
<g id="node3" class="node">
<title>Controller</title>
<path fill="#f8fafc" stroke="#0f172a" d="M133.5,-282C133.5,-282 78.5,-282 78.5,-282 72.5,-282 66.5,-276 66.5,-270 66.5,-270 66.5,-258 66.5,-258 66.5,-252 72.5,-246 78.5,-246 78.5,-246 133.5,-246 133.5,-246 139.5,-246 145.5,-252 145.5,-258 145.5,-258 145.5,-270 145.5,-270 145.5,-276 139.5,-282 133.5,-282"/>
<text text-anchor="middle" x="106" y="-261.5" font-family="Arial" font-size="10.00">AuthController</text>
</g>
<!-- View&#45;&gt;Controller -->
<g id="edge2" class="edge">
<title>View&#45;&gt;Controller</title>
<path fill="none" stroke="#475569" d="M73.45,-327.79C67.23,-322.91 61.55,-316.99 58,-310 54.06,-302.24 56.71,-295.12 62.39,-288.93"/>
<polygon fill="#475569" stroke="#475569" points="64.97,-291.33 70.22,-282.13 60.38,-286.04 64.97,-291.33"/>
<text text-anchor="middle" x="87.5" y="-302.8" font-family="Arial" font-size="9.00">2. POST /login</text>
</g>
<!-- Controller&#45;&gt;View -->
<g id="edge8" class="edge">
<title>Controller&#45;&gt;View</title>
<path fill="none" stroke="#475569" d="M114.33,-282.05C116.64,-287.64 118.84,-293.96 120,-300 121.15,-305.97 120.45,-312.27 118.88,-318.2"/>
<polygon fill="#475569" stroke="#475569" points="115.55,-317.11 115.59,-327.71 122.17,-319.4 115.55,-317.11"/>
<text text-anchor="middle" x="160.5" y="-302.8" font-family="Arial" font-size="9.00">8. Sesión / mensaje</text>
</g>
<!-- Validator -->
<g id="node4" class="node">
<title>Validator</title>
<path fill="#f8fafc" stroke="#0f172a" d="M82,-200C82,-200 12,-200 12,-200 6,-200 0,-194 0,-188 0,-188 0,-176 0,-176 0,-170 6,-164 12,-164 12,-164 82,-164 82,-164 88,-164 94,-170 94,-176 94,-176 94,-188 94,-188 94,-194 88,-200 82,-200"/>
<text text-anchor="middle" x="47" y="-179.5" font-family="Arial" font-size="10.00">CSRF + Validator</text>
</g>
<!-- Controller&#45;&gt;Validator -->
<g id="edge3" class="edge">
<title>Controller&#45;&gt;Validator</title>
<path fill="none" stroke="#475569" d="M66.23,-250.07C56.27,-244.84 46.78,-237.68 41,-228 37.84,-222.71 37.17,-216.46 37.76,-210.32"/>
<polygon fill="#475569" stroke="#475569" points="41.24,-210.78 39.74,-200.3 34.37,-209.43 41.24,-210.78"/>
<text text-anchor="middle" x="94.5" y="-220.8" font-family="Arial" font-size="9.00">3. Validar CSRF y campos</text>
</g>
<!-- Model -->
<g id="node5" class="node">
<title>Model</title>
<path fill="#f8fafc" stroke="#0f172a" d="M141.5,-118C141.5,-118 78.5,-118 78.5,-118 72.5,-118 66.5,-112 66.5,-106 66.5,-106 66.5,-94 66.5,-94 66.5,-88 72.5,-82 78.5,-82 78.5,-82 141.5,-82 141.5,-82 147.5,-82 153.5,-88 153.5,-94 153.5,-94 153.5,-106 153.5,-106 153.5,-112 147.5,-118 141.5,-118"/>
<text text-anchor="middle" x="110" y="-97.5" font-family="Arial" font-size="10.00">User + AuditLog</text>
</g>
<!-- Validator&#45;&gt;Model -->
<g id="edge4" class="edge">
<title>Validator&#45;&gt;Model</title>
<path fill="none" stroke="#475569" d="M46.36,-163.97C46.79,-155 48.6,-144.18 54,-136 56.85,-131.68 60.43,-127.8 64.4,-124.34"/>
<polygon fill="#475569" stroke="#475569" points="66.62,-127.05 72.42,-118.18 62.35,-121.49 66.62,-127.05"/>
<text text-anchor="middle" x="101" y="-138.8" font-family="Arial" font-size="9.00">4. Validar credenciales</text>
</g>
<!-- Model&#45;&gt;Controller -->
<g id="edge7" class="edge">
<title>Model&#45;&gt;Controller</title>
<path fill="none" stroke="#475569" d="M137.04,-118.24C142.68,-123.23 147.86,-129.2 151,-136 168.12,-173.13 168.96,-191.27 151,-228 149.09,-231.9 146.52,-235.49 143.56,-238.77"/>
<polygon fill="#475569" stroke="#475569" points="140.95,-236.41 136.09,-245.83 145.76,-241.5 140.95,-236.41"/>
<text text-anchor="middle" x="213" y="-179.8" font-family="Arial" font-size="9.00">7. Éxito o fallo / bloqueo</text>
</g>
<!-- DB -->
<g id="node6" class="node">
<title>DB</title>
<path fill="#f8fafc" stroke="#0f172a" d="M125,-36C125,-36 95,-36 95,-36 89,-36 83,-30 83,-24 83,-24 83,-12 83,-12 83,-6 89,0 95,0 95,0 125,0 125,0 131,0 137,-6 137,-12 137,-12 137,-24 137,-24 137,-30 131,-36 125,-36"/>
<text text-anchor="middle" x="110" y="-15.5" font-family="Arial" font-size="10.00">MySQL</text>
</g>
<!-- Model&#45;&gt;DB -->
<g id="edge5" class="edge">
<title>Model&#45;&gt;DB</title>
<path fill="none" stroke="#475569" d="M66.23,-93.57C47.86,-88.88 28.19,-80.17 17,-64 0.83,-40.64 40.26,-28.96 72.68,-23.45"/>
<polygon fill="#475569" stroke="#475569" points="73.53,-26.86 82.88,-21.87 72.46,-19.94 73.53,-26.86"/>
<text text-anchor="middle" x="91" y="-56.8" font-family="Arial" font-size="9.00">5. SELECT usuario / INSERT intento</text>
</g>
<!-- DB&#45;&gt;Model -->
<g id="edge6" class="edge">
<title>DB&#45;&gt;Model</title>
<path fill="none" stroke="#475569" d="M137.05,-28.29C148.76,-33.82 161.29,-42.12 168,-54 172.93,-62.74 169.34,-70.36 162.01,-76.72"/>
<polygon fill="#475569" stroke="#475569" points="159.75,-74.04 153.6,-82.66 163.79,-79.75 159.75,-74.04"/>
<text text-anchor="middle" x="196" y="-56.8" font-family="Arial" font-size="9.00">6. Resultado</text>
</g>
</g>
</svg>
